<?xml version="1.0" encoding="UTF-8"?>
<svg width="352px" height="51px" viewBox="0 0 352 51" version="1.1" xmlns="http://www.w3.org/2000/svg" xmlns:xlink="http://www.w3.org/1999/xlink">
    <!-- Generator: Sketch 46.1 (44463) - http://www.bohemiancoding.com/sketch -->
    <title>Artboard</title>
    <desc>Created with Sketch.</desc>
    <defs></defs>
    <g id="Page-1" stroke="none" stroke-width="1" fill="none" fill-rule="evenodd">
        <g id="Artboard" fill="#0ABF53">
            <g id="Logo" transform="translate(6.000000, 0.000000)">
                <path d="M21.5585114,11.8610687 L0.386556818,11.8610687 L0.386556818,18.7409877 L14.1855341,18.741382 C15.0390114,18.741382 15.7309886,19.4475505 15.7309886,20.3185311 L15.7309886,32.5016143 L12.781875,32.5016143 C11.9283977,32.5016143 11.2364205,31.7954457 11.2364205,30.9244651 L11.2364205,22.1815386 L5.40889773,22.1815386 C2.42153409,22.1815386 -0.000193181818,24.6529314 -0.000193181818,27.7015607 L-0.000193181818,33.8619054 C-0.000193181818,36.9105348 2.42153409,39.3819275 5.40889773,39.3819275 L26.9676023,39.3819275 L26.9676023,17.3810908 C26.9676023,14.3324614 24.545875,11.8610687 21.5585114,11.8610687" id="Fill-1"></path>
                <path d="M47.1929273,32.5015748 L44.2438136,32.5015748 C43.3903364,32.5015748 42.6983591,31.7954063 42.6983591,30.9244257 L42.6983591,11.8610293 L36.8712227,11.8610293 C33.8838591,11.8610293 31.4621318,14.332422 31.4621318,17.3810514 L31.4621318,33.861866 C31.4621318,36.9104954 33.8838591,39.3818881 36.8712227,39.3818881 L58.4299273,39.3818881 L58.4299273,0.393971865 L47.1933136,0.393971865 L47.1929273,32.5015748 Z" id="Fill-4"></path>
                <path d="M78.6552523,32.5015748 L75.7061386,32.5015748 C74.8526614,32.5015748 74.1606841,31.7954063 74.1606841,30.9244257 L74.1606841,11.8610293 L62.9244568,11.8610293 L62.9244568,33.861866 C62.9244568,36.9104954 65.3461841,39.3818881 68.3335477,39.3818881 L78.6556386,39.3818881 L78.6556386,42.8220448 L63.3108205,42.8220448 L63.3108205,50.8473684 L84.482775,50.8473684 C87.4701386,50.8473684 89.8918659,48.3759756 89.8918659,45.3273462 L89.8918659,11.8610293 L78.6552523,11.8610293 L78.6552523,32.5015748 Z" id="Fill-7"></path>
                <path d="M115.9451,11.8610687 L94.3863955,11.8610687 L94.3863955,33.8619054 C94.3863955,36.9105348 96.8081227,39.3819275 99.7954864,39.3819275 L120.967827,39.3819275 L120.967827,32.5016143 L107.168464,32.5016143 C106.314986,32.5016143 105.623009,31.7954457 105.623009,30.9244651 L105.623009,18.741382 L108.572123,18.741382 C109.4256,18.741382 110.117577,19.4475505 110.117577,20.3185311 L110.117577,29.0614576 L115.9451,29.0614576 C118.932464,29.0614576 121.354191,26.5900649 121.354191,23.5414355 L121.354191,17.3810908 C121.354191,14.3324614 118.932464,11.8610687 115.9451,11.8610687" id="Fill-10"></path>
                <path d="M147.407232,11.8610687 L125.848914,11.8610687 L125.848914,39.3819275 L137.085141,39.3819275 L137.085141,18.7409877 L140.034255,18.7409877 C140.884255,18.7409877 141.579709,19.4507048 141.579709,20.3181369 L141.579709,39.3819275 L152.816323,39.3819275 L152.816323,17.3810908 C152.816323,14.3324614 150.394595,11.8610687 147.407232,11.8610687" id="Fill-12"></path>
            </g>
        </g>
    </g>
</svg>